<svg width="36" height="36" viewBox="0 0 36 36" fill="none" xmlns="http://www.w3.org/2000/svg">
<path fill-rule="evenodd" clip-rule="evenodd" d="M31.4396 0.957229L35.0102 4.53469V4.53241C36.33 5.85296 36.33 7.99314 35.0102 9.31369L34.2543 10.072C34.0432 10.2837 33.7567 10.4024 33.4577 10.4024C33.1588 10.4024 32.8723 10.2837 32.6612 10.072L25.9068 3.30856C25.4673 2.86837 25.4673 2.15555 25.9068 1.71546L26.6629 0.957229C27.9991 -0.319076 30.1031 -0.319076 31.4396 0.957229ZM30.058 14.2727C30.4974 13.8327 30.4974 13.1197 30.058 12.6797L28.8339 11.4556C28.3947 11.0165 27.6824 11.0165 27.2433 11.4556L10.9306 26.6545C10.6461 26.939 10.2315 27.0501 9.84271 26.9461C9.45391 26.8418 9.15042 26.5383 9.04613 26.1495C8.9421 25.7607 9.05322 25.3461 9.33773 25.0613L24.5229 8.73327C24.9624 8.29309 24.9624 7.58029 24.5229 7.1401L23.3014 5.91625C22.8619 5.47708 22.1499 5.47708 21.7105 5.91625L3.46296 24.1772C2.74223 24.8993 2.23128 25.8038 1.98476 26.794L0.0340025 34.6014C-0.0505918 34.9378 0.0246096 35.2942 0.237842 35.5678C0.451049 35.8412 0.778492 36.0011 1.12525 36.0009C1.21782 36.0014 1.31005 35.99 1.39976 35.9672L9.19598 34.0187C10.186 33.7698 11.0896 33.2565 11.8105 32.5336L30.058 14.2727Z" fill="#A70000"/>
</svg>
