<svg width="36" height="36" viewBox="0 0 36 36" fill="none" xmlns="http://www.w3.org/2000/svg">
<path fill-rule="evenodd" clip-rule="evenodd" d="M22.4259 2.25165C22.5186 1.01245 23.5073 0 24.7499 0C25.9927 0 26.9814 1.01245 27.0741 2.25165C27.4224 6.91714 29.0829 8.57764 33.7485 8.92594C34.9875 9.01859 36 10.0073 36 11.2501C36 12.4927 34.9875 13.4814 33.7485 13.5741C29.0829 13.9224 27.4224 15.5829 27.0741 20.2485C26.9814 21.4875 25.9927 22.5001 24.7499 22.5001C23.5073 22.5001 22.5186 21.4875 22.4259 20.2485C22.0776 15.5829 20.4171 13.9224 15.7515 13.5741C14.5125 13.4814 13.5 12.4927 13.5 11.2501C13.5 10.0073 14.5125 9.01859 15.7515 8.92594C20.4171 8.57764 22.0776 6.91714 22.4259 2.25165ZM7.14073 19.8012C7.21489 18.81 8.00591 18 8.99993 18C9.9942 18 10.7852 18.81 10.8591 19.8012C11.1378 23.5338 12.4662 24.8622 16.1988 25.1409C17.19 25.2148 18 26.0058 18 27.0001C18 27.9941 17.19 28.7852 16.1988 28.8593C12.4662 29.138 11.1378 30.4664 10.8591 34.1988C10.7852 35.19 9.9942 36 8.99993 36C8.00591 36 7.21489 35.19 7.14073 34.1988C6.86204 30.4664 5.53364 29.138 1.80131 28.8593C0.809974 28.7852 0 27.9941 0 27.0001C0 26.0058 0.809974 25.2148 1.80131 25.1409C5.53364 24.8622 6.86204 23.5338 7.14073 19.8012Z" fill="#A70000"/>
</svg>
