<svg width="36" height="36" viewBox="0 0 36 36" fill="none" xmlns="http://www.w3.org/2000/svg">
<path d="M6.75 9H2.25C1.00736 9 0 10.0074 0 11.25V33.75C0 34.9926 1.00736 36 2.25 36H6.75C7.99264 36 9 34.9926 9 33.75V11.25C9 10.0074 7.99264 9 6.75 9Z" fill="#A70000"/>
<path d="M20.25 13.5H15.75C14.5074 13.5 13.5 14.5074 13.5 15.75V33.75C13.5 34.9926 14.5074 36 15.75 36H20.25C21.4926 36 22.5 34.9926 22.5 33.75V15.75C22.5 14.5074 21.4926 13.5 20.25 13.5Z" fill="#A70000"/>
<path d="M33.75 0H29.25C28.0074 0 27 1.00736 27 2.25V33.75C27 34.9926 28.0074 36 29.25 36H33.75C34.9926 36 36 34.9926 36 33.75V2.25C36 1.00736 34.9926 0 33.75 0Z" fill="#A70000"/>
</svg>
